<svg version="1.2" xmlns="http://www.w3.org/2000/svg" viewBox="0 0 154 93" width="154" height="93">
	<title>card_line-svg</title>
	<defs>
		<clipPath clipPathUnits="userSpaceOnUse" id="cp1">
			<path d="m21.67 92.69l-8.75-1.7 2.03-10.44 8.75 1.71z"/>
		</clipPath>
	</defs>
	<style>
		.s0 { fill: none;stroke: #ffffff;stroke-linecap: round;stroke-width: 2;stroke-dasharray: 4 } 
		.s1 { fill: #ffffff } 
	</style>
	<g id="Layer">
		<path id="Layer" class="s0" d="m144.5 1.3c11.1 4.3 9 29.3 2.1 40.5-7.6 9.7-18.1 21.2-47.9 22.2-51 1.4-101.1-3.7-97.5-27.8 3.6-24.1 46.2-20.2 45.5 1.1 0.8 15.8-15.2 23.4-22.8 31.6-4.1 5.8-5.4 10.5-5.3 13.7"/>
		<g id="Layer">
			<g id="Clip-Path: Clip-Path" clip-path="url(#cp1)">
				<g id="Clip-Path">
					<g id="Layer">
						<path id="Layer" class="s1" d="m23 82.7q0.1-0.1 0.3 0 0.1 0.1 0.2 0.3 0.1 0.1 0 0.3-2 4.2-4.1 8.5-0.1 0.1-0.2 0.2-0.2 0.1-0.3 0.1-0.2 0-0.3 0-0.2-0.1-0.3-0.3-0.6-1-1.1-2.1-0.5-1.1-1-2.2-0.5-1.1-0.9-2.3-0.4-1.1-0.7-2.3-0.1-0.1-0.1-0.3 0.1-0.2 0.2-0.3 0.1-0.2 0.3-0.2 0.2-0.1 0.4-0.1 0.5 0.1 1.1 0.1 0.6 0.1 1.2 0.1 0.6 0 1.2 0 0.6 0 1.2 0c0.8 0 2.2-0.5 2.9 0 0.6 0.4 0.5 0.9 0.3 1.4q-0.2 0.5-0.5 1-0.2 0.5-0.5 0.9-0.3 0.5-0.6 1-0.3 0.4-0.6 0.9c-0.4 0.6-1.6 0.4-1.4-0.5q0.3-1.2 0.6-2.5l1.5 0.3q-0.9 2.6-2 5.1c-0.2 0.6-1.4 0.4-1.4-0.3l0.2-4h1.5c-0.5 1.6-0.1 3.3-0.3 4.9q-0.1 0.2-0.3 0.4-0.2 0.1-0.4 0.2-0.3 0-0.5-0.2-0.2-0.1-0.3-0.3c-0.7-2.1-1.4-4.2-2.2-6.2l1.5-0.5q0.1 0.5 0.3 0.9 0.1 0.5 0.3 1 0.2 0.4 0.4 0.9 0.2 0.4 0.5 0.8c0.6 1-0.8 1.9-1.4 1q-0.2-0.4-0.5-0.8-0.2-0.4-0.4-0.8-0.2-0.4-0.4-0.8-0.1-0.4-0.3-0.8c-0.2-0.7-0.6-1.5-0.1-2.1q0.1-0.2 0.3-0.3 0.2-0.1 0.4-0.1 0.2-0.1 0.4-0.1 0.2 0.1 0.4 0.1 0.1 0.1 0.3 0.2 0.2 0.1 0.3 0.2 0.2 0.1 0.3 0.2 0.2 0 0.3 0.2 0.2 0.1 0.5 0.2 0.2 0.1 0.5 0.2 0.2 0.1 0.5 0.1 0.2 0.1 0.5 0.1 0.4 0.1 0.6 0.4 0.2 0.3 0.1 0.7-0.1 0.4-0.4 0.6-0.3 0.2-0.7 0.1-1.4-0.3-2.9-0.6l0.3-1.8q0.2 0.1 0.4 0.1 0.2 0.1 0.5 0.1 0.2 0.1 0.4 0.1 0.2 0 0.4 0c0.1 0 1.5-0.3 1.5-0.4l0.5 1q-0.2-0.1-0.4-0.2-0.2 0-0.4 0-0.2 0-0.4 0-0.2 0-0.4 0.1-0.2-0.1-0.3 0-0.1 0-0.2 0-0.1 0.1-0.2 0.2-0.1 0.1-0.1 0.2-0.1 0.1-0.1 0.2-0.1 0.1-0.2 0.2 0 0.1-0.1 0.2-0.1 0.1-0.1 0.2l-0.8 0.5c0.1-0.3-0.3-0.9-0.5-1.1l1.5-1q0.1 0.2 0.2 0.4 0.1 0.2 0.2 0.4 0.1 0.3 0.2 0.5 0.1 0.2 0.2 0.4l-1.6 0.8q-0.2-0.3-0.4-0.6-0.2-0.3-0.4-0.6-0.3-0.2-0.6-0.4-0.3-0.2-0.6-0.4c-1-0.6-0.2-2.3 0.9-1.7 1.2 0.8 2.4 1.6 2.8 3.1q0.1 0.3 0 0.6-0.1 0.4-0.4 0.5-0.4 0.2-0.7 0.1-0.3-0.1-0.5-0.4-0.2-0.2-0.3-0.5-0.2-0.2-0.3-0.5-0.2-0.3-0.3-0.5-0.1-0.3-0.2-0.6-0.1-0.3 0-0.6 0.1-0.3 0.4-0.5 0.2-0.1 0.5-0.1 0.4 0 0.6 0.2 0.4 0.3 0.6 0.7 0.3 0.4 0.4 0.8 0.2 0.5 0.1 0.9 0 0.5-0.1 0.9-0.1 0.2-0.2 0.3 0 0-0.1 0.1-0.1 0.1-0.3 0.1-0.1 0.1-0.2 0.1c-1.7 0.1-2-2.6-1.4-3.7 0.9-1.5 3.6-1.7 5.1-1q0.1 0.1 0.2 0.2 0.1 0.1 0.2 0.2 0.1 0.2 0.1 0.3 0 0.2 0 0.3c-0.2 2.1-4 2.1-5.4 1.6-1.1-0.3-0.9-2 0.3-1.8q1.5 0.3 3 0.6l-0.4 1.8c-0.5-0.1-2.8-0.6-3-1.2q0.3-1 0.4-0.1 0.2 0.5 0.4 0.9 0.1 0.3 0.2 0.5 0.1 0.3 0.3 0.5 0.1 0.2 0.2 0.5 0.2 0.2 0.3 0.4l-1.4 1q-0.3-0.5-0.5-1-0.3-0.6-0.5-1.1-0.2-0.5-0.4-1.1-0.1-0.5-0.2-1.1c-0.2-0.9 1.2-1.2 1.5-0.3 0.7 2 1.5 4.1 2.1 6.2l-1.4 0.1c0.3-1.6-0.2-3.2 0.3-4.8 0.3-0.8 1.5-0.8 1.5 0.1l-0.2 4-1.4-0.3q1-2.3 1.8-4.7c0.3-0.9 1.7-0.7 1.4 0.3q-0.3 1.2-0.6 2.5l-1.4-0.5 1.7-2.8 0.5-0.7q0.2-0.6 0.4 0.3-0.1 0-0.3 0.1-0.2 0-0.3 0-0.2 0-0.4 0-0.2 0-0.3 0-0.8 0.1-1.5 0.1-0.7 0-1.5-0.1-0.7 0-1.4 0-0.8-0.1-1.5-0.2l0.8-0.9q0.3 1.1 0.7 2.2 0.4 1.1 0.8 2.2 0.4 1.1 0.9 2.1 0.5 1.1 1.1 2.1l-1.1 0.1q2.1-4.2 4.4-8.3 0.1-0.1 0.3-0.2z"/>
					</g>
				</g>
			</g>
		</g>
	</g>
</svg>