<svg version="1.2" xmlns="http://www.w3.org/2000/svg" viewBox="0 0 246 185" width="246" height="185">
	<title>blank-card_img-svg</title>
	<defs>
		<clipPath clipPathUnits="userSpaceOnUse" id="cp1">
			<path d="m8 17h28v13h-28z"/>
		</clipPath>
	</defs>
	<style>
		.s0 { fill: none } 
		.s1 { fill: none;stroke: #ffffff;stroke-width: 2 } 
		.s2 { fill: none;stroke: #ffffff;stroke-width: 1.5 } 
		.s3 { opacity: .2;fill: #ffffff } 
		.s4 { fill: none;stroke: #ffffff;stroke-linecap: round;stroke-linejoin: round;stroke-width: 2;stroke-dasharray: 24 } 
		.s5 { fill: #ffffff } 
		.s6 { fill: none;stroke: #ffffff;stroke-linecap: round;stroke-width: 2 } 
		.s7 { fill: none;stroke: #ffffff;stroke-width: 1.8 } 
		.s8 { fill: none;stroke: #ffffff;stroke-linecap: round } 
		.s9 { fill: none;stroke: #ffffff;stroke-linecap: round;stroke-width: 1.5 } 
	</style>
	<g id="Layer">
		<g id="Layer">
			<path id="Layer" class="s0" d="m0 9c0-5 4-9 9-9h25c5 0 9 4 9 9v167c0 5-4 9-9 9h-25c-5 0-9-4-9-9z"/>
			<path id="Layer" class="s1" d="m1 9c0-4.4 3.6-8 8-8h25c4.4 0 8 3.6 8 8v167c0 4.4-3.6 8-8 8h-25c-4.4 0-8-3.6-8-8z"/>
		</g>
		<g id="Layer">
			<path id="Layer" class="s0" d="m58 12c0-6.6 5.4-12 12-12h164c6.6 0 12 5.4 12 12v161c0 6.6-5.4 12-12 12h-164c-6.6 0-12-5.4-12-12z"/>
			<path id="Layer" class="s1" d="m59 12c0-6.1 4.9-11 11-11h164c6.1 0 11 4.9 11 11v161c0 6.1-4.9 11-11 11h-164c-6.1 0-11-4.9-11-11z"/>
		</g>
		<g id="Layer">
			<path id="Layer" class="s0" d="m7 119c0-2.2 1.8-4 4-4h21c2.2 0 4 1.8 4 4v17c0 2.2-1.8 4-4 4h-21c-2.2 0-4-1.8-4-4z"/>
			<path id="Layer" class="s2" d="m7.8 119c0-1.8 1.4-3.3 3.2-3.3h21c1.8 0 3.3 1.5 3.3 3.3v17c0 1.8-1.5 3.3-3.3 3.3h-21c-1.8 0-3.3-1.5-3.3-3.3z"/>
		</g>
		<g id="Layer">
			<path id="Layer" class="s3" d="m73 24c0-5 4-9 9-9h140c5 0 9 4 9 9v24c0 5-4 9-9 9h-140c-5 0-9-4-9-9z"/>
			<path id="Layer" class="s4" d="m74 24c0-4.4 3.6-8 8-8h140c4.4 0 8 3.6 8 8v24c0 4.4-3.6 8-8 8h-140c-4.4 0-8-3.6-8-8z"/>
		</g>
		<g id="Layer">
			<path id="Layer" class="s3" d="m73 81c0-5 4-9 9-9h55c5 0 9 4 9 9v24c0 5-4 9-9 9h-55c-5 0-9-4-9-9z"/>
			<path id="Layer" class="s4" d="m74 81c0-4.4 3.6-8 8-8h55c4.4 0 8 3.6 8 8v24c0 4.4-3.6 8-8 8h-55c-4.4 0-8-3.6-8-8z"/>
		</g>
		<g id="Layer">
			<path id="Layer" class="s3" d="m73 138c0-5 4-9 9-9h140c5 0 9 4 9 9v24c0 5-4 9-9 9h-140c-5 0-9-4-9-9z"/>
			<path id="Layer" class="s4" d="m74 138c0-4.4 3.6-8 8-8h140c4.4 0 8 3.6 8 8v24c0 4.4-3.6 8-8 8h-140c-4.4 0-8-3.6-8-8z"/>
		</g>
		<g id="Layer">
			<path id="Layer" class="s5" d="m147 28c0-1.1 0.9-2 2-2 1.1 0 2 0.9 2 2v16c0 1.1-0.9 2-2 2-1.1 0-2-0.9-2-2z"/>
			<path id="Layer" class="s5" d="m157 34c1.1 0 2 0.9 2 2 0 1.1-0.9 2-2 2h-16c-1.1 0-2-0.9-2-2 0-1.1 0.9-2 2-2z"/>
		</g>
		<g id="Layer">
			<path id="Layer" class="s5" d="m108 85c0-1.1 0.9-2 2-2 1.1 0 2 0.9 2 2v16c0 1.1-0.9 2-2 2-1.1 0-2-0.9-2-2z"/>
			<path id="Layer" class="s5" d="m118 91c1.1 0 2 0.9 2 2 0 1.1-0.9 2-2 2h-16c-1.1 0-2-0.9-2-2 0-1.1 0.9-2 2-2z"/>
		</g>
		<g id="Layer">
			<path id="Layer" class="s5" d="m147 142c0-1.1 0.9-2 2-2 1.1 0 2 0.9 2 2v16c0 1.1-0.9 2-2 2-1.1 0-2-0.9-2-2z"/>
			<path id="Layer" class="s5" d="m157 148c1.1 0 2 0.9 2 2 0 1.1-0.9 2-2 2h-16c-1.1 0-2-0.9-2-2 0-1.1 0.9-2 2-2z"/>
		</g>
		<g id="Layer">
			<path id="Layer" class="s0" d="m7 14c0-2.2 1.8-4 4-4h21c2.2 0 4 1.8 4 4v17c0 2.2-1.8 4-4 4h-21c-2.2 0-4-1.8-4-4z"/>
			<path id="Layer" class="s1" d="m8 14c0-1.7 1.3-3 3-3h21c1.7 0 3 1.3 3 3v17c0 1.7-1.3 3-3 3h-21c-1.7 0-3-1.3-3-3z"/>
		</g>
		<g id="Layer">
			<path id="Layer" class="s5" d="m30 18c-1.1 0-2-0.9-2-2 0-1.1 0.9-2 2-2 1.1 0 2 0.9 2 2 0 1.1-0.9 2-2 2z"/>
			<g id="Clip-Path" clip-path="url(#cp1)">
				<g id="Layer">
					<path id="Layer" class="s1" d="m6 30.3v-10.4c0 0 4.5-1.4 7.2 1.7 2.6 3.2 2.8 6.8 5.1 6.5 2.2-0.3 5.7-3.6 7.8-3.6 1.6 0 6.3 2.6 8.5 4q0.1 0.1 0.2 0.3 0.1 0.2 0.2 0.4 0 0.2 0 0.4 0.1 0.2 0 0.4c0 0.8 0.2 1.5-0.6 1.9q-0.2 0.1-0.5 0.2-0.3 0.1-0.5 0.1-0.3 0-0.6 0-0.2 0-0.5-0.1h-1.3l-22-0.4h-2z"/>
				</g>
			</g>
		</g>
		<g id="Layer">
			<path id="Layer" class="s0" d="m7 49c0-2.2 1.8-4 4-4h21c2.2 0 4 1.8 4 4v17c0 2.2-1.8 4-4 4h-21c-2.2 0-4-1.8-4-4z"/>
			<path id="Layer" class="s2" d="m7.8 49c0-1.8 1.4-3.3 3.2-3.3h21c1.8 0 3.3 1.5 3.3 3.3v17c0 1.8-1.5 3.3-3.3 3.3h-21c-1.8 0-3.3-1.5-3.3-3.3z"/>
		</g>
		<path id="Layer" class="s6" d="m11 52.5h20"/>
		<path id="Layer" class="s6" d="m11 56.5h20"/>
		<path id="Layer" class="s6" d="m11 60.5h9"/>
		<g id="Layer">
			<path id="Layer" class="s0" d="m7 84c0-2.2 1.8-4 4-4h21c2.2 0 4 1.8 4 4v17c0 2.2-1.8 4-4 4h-21c-2.2 0-4-1.8-4-4z"/>
			<path id="Layer" class="s2" d="m7.8 84c0-1.8 1.4-3.3 3.2-3.3h21c1.8 0 3.3 1.5 3.3 3.3v17c0 1.8-1.5 3.3-3.3 3.3h-21c-1.8 0-3.3-1.5-3.3-3.3z"/>
		</g>
		<g id="Layer">
			<path id="Layer" class="s0" d="m11 92c0-2.2 1.8-4 4-4h13c2.2 0 4 1.8 4 4v1c0 2.2-1.8 4-4 4h-13c-2.2 0-4-1.8-4-4z"/>
			<path id="Layer" class="s7" d="m11.9 92c0-1.7 1.4-3.1 3.1-3.1h13c1.7 0 3.1 1.4 3.1 3.1v1c0 1.7-1.4 3.1-3.1 3.1h-13c-1.7 0-3.1-1.4-3.1-3.1z"/>
		</g>
		<path id="Layer" class="s8" d="m15.5 92.5h12"/>
		<g id="Layer">
			<path id="Layer" class="s0" d="m7 154c0-2.2 1.8-4 4-4h21c2.2 0 4 1.8 4 4v17c0 2.2-1.8 4-4 4h-21c-2.2 0-4-1.8-4-4z"/>
			<path id="Layer" class="s2" d="m7.8 154c0-1.8 1.4-3.3 3.2-3.3h21c1.8 0 3.3 1.5 3.3 3.3v17c0 1.8-1.5 3.3-3.3 3.3h-21c-1.8 0-3.3-1.5-3.3-3.3z"/>
		</g>
		<path id="Layer" class="s5" d="m18 161.1l-4.4 1.7 4.4 1.6v1.4c0 0-5.9-1.5-5.9-3 0-1.5 5.9-3 5.9-3zm5-4.7h1.4l-4.2 12.1h-1.5zm8.2 6.3c0 1.5-6.2 3-6.2 3v-1.3l4.5-1.7-4.5-1.6v-1.4c0 0 6.2 1.5 6.2 3z"/>
		<path id="Layer" class="s6" d="m13.5 123.5h16"/>
		<path id="Layer" class="s6" d="m13.5 131.5h16"/>
		<path id="Layer" class="s9" d="m14 127.5h3"/>
		<path id="Layer" class="s9" d="m20 127.5h3"/>
		<path id="Layer" class="s9" d="m26 127.5h3"/>
		<g id="Layer">
			<path id="Layer" class="s3" d="m161 81c0-5 4-9 9-9h52c5 0 9 4 9 9v24c0 5-4 9-9 9h-52c-5 0-9-4-9-9z"/>
			<path id="Layer" class="s4" d="m162 81c0-4.4 3.6-8 8-8h52c4.4 0 8 3.6 8 8v24c0 4.4-3.6 8-8 8h-52c-4.4 0-8-3.6-8-8z"/>
		</g>
		<g id="Layer">
			<path id="Layer" class="s5" d="m194 85c0-1.1 0.9-2 2-2 1.1 0 2 0.9 2 2v16c0 1.1-0.9 2-2 2-1.1 0-2-0.9-2-2z"/>
			<path id="Layer" class="s5" d="m204 91c1.1 0 2 0.9 2 2 0 1.1-0.9 2-2 2h-16c-1.1 0-2-0.9-2-2 0-1.1 0.9-2 2-2z"/>
		</g>
	</g>
</svg>