<svg width="24" height="23" viewBox="0 0 24 23" fill="none" xmlns="http://www.w3.org/2000/svg">
<path fill-rule="evenodd" clip-rule="evenodd" d="M22.6407 6.2567L12.6179 0.655731C12.1199 0.406749 11.5338 0.406749 11.0358 0.655731L0.867969 6.33798C0.431369 6.61014 0.136406 7.05865 0.0568785 7.56341H0.015625V11.0206H2.39366V20.4451H1.2145C1.13497 20.4451 1.05728 20.4529 0.982104 20.4679H0.015625V22.8034H23.914V20.4679H22.6716C22.6152 20.4567 22.5575 20.4494 22.4986 20.4465C22.4789 20.4455 22.4592 20.4451 22.4392 20.4451H21.2601V11.0206H23.6184V7.66181H23.6094C23.5494 7.06246 23.1868 6.52972 22.6407 6.2567ZM15.0117 11.0118H8.62226V11.0206H5.93115V20.4451H8.28948H10.6478H13.0061H15.3642H17.7226V11.0206H15.0117V11.0118ZM10.6478 6.29523C10.6478 5.64403 11.1756 5.1161 11.827 5.1161C12.4781 5.1161 13.0061 5.64403 13.0061 6.29523C13.0061 6.94647 12.4781 7.4744 11.827 7.4744C11.1756 7.4744 10.6478 6.94647 10.6478 6.29523Z" fill="#ECF6FF"/>
<path fill-rule="evenodd" clip-rule="evenodd" d="M10.7453 13.3973H8.41406V20.4451H10.7453V13.3973ZM15.5162 13.3973H13.1849V20.4451H15.5162V13.3973Z" fill="#44C4F1"/>
</svg>
