<svg id="eye-view" xmlns="http://www.w3.org/2000/svg" width="22.442" height="14.127" viewBox="0 0 22.442 14.127">
  <g id="Group_86" data-name="Group 86" transform="translate(0 0)">
    <path id="Path_160" data-name="Path 160" d="M2.61,100.132a12.018,12.018,0,0,0,8.61,3.476,12.072,12.072,0,0,0,8.61-3.476,12.562,12.562,0,0,0,2.541-3.5.757.757,0,0,0,0-.632A10.737,10.737,0,0,0,19.9,92.707a12.545,12.545,0,0,0-8.755-3.226A12.269,12.269,0,0,0,2.465,92.72a10.176,10.176,0,0,0-2.409,3.3.746.746,0,0,0,.013.606A12.245,12.245,0,0,0,2.61,100.132ZM11.1,91.114a3.844,3.844,0,1,1-3.844,3.844A3.849,3.849,0,0,1,11.1,91.114Zm-4.463.764a5.378,5.378,0,0,0-.961,3.081,5.424,5.424,0,1,0,9.861-3.107,10.007,10.007,0,0,1,5.2,4.476,11.923,11.923,0,0,1-2.08,2.738,10.314,10.314,0,0,1-7.452,2.989,10.38,10.38,0,0,1-7.452-3A11.968,11.968,0,0,1,1.662,96.3,9.648,9.648,0,0,1,6.639,91.877Z" transform="translate(0.002 -89.481)" fill="#002e5b"/>
  </g>
</svg>
