<svg xmlns="http://www.w3.org/2000/svg" width="15.608" height="10.406" viewBox="0 0 15.608 10.406">
  <g id="mail_9_" data-name="mail (9)" transform="translate(0 -85.333)">
    <g id="Group_1296" data-name="Group 1296" transform="translate(0 85.333)">
      <path id="Path_11491" data-name="Path 11491" d="M14.808,85.333H.8a.8.8,0,0,0-.8.8v8.8a.8.8,0,0,0,.8.8H14.808a.8.8,0,0,0,.8-.8v-8.8A.8.8,0,0,0,14.808,85.333Zm-.3.6L8.265,90.616a.837.837,0,0,1-.921,0L1.1,85.933Zm-3.335,4.992,3.4,4.2.011.011H1.023l.011-.011,3.4-4.2a.3.3,0,0,0-.467-.378L.6,94.708v-8.4L6.984,91.1a1.433,1.433,0,0,0,1.641,0l6.383-4.788v8.4l-3.368-4.161a.3.3,0,0,0-.467.378Z" transform="translate(0 -85.333)" fill="#002e5b"/>
    </g>
  </g>
</svg>
